<svg width="410" height="404" viewBox="0 0 410 404" fill="none" xmlns="http://www.w3.org/2000/svg">
<path d="M133.714 299.429C133.714 313.807 121.95 325.571 107.571 325.571C93.1929 325.571 81.4286 313.807 81.4286 299.429C81.4286 285.05 93.1929 273.286 107.571 273.286C121.95 273.286 133.714 285.05 133.714 299.429Z" fill="#1D97DE"/>
<path d="M217.304 404C159.936 404 106.153 381.659 65.8847 341.115C25.3406 300.847 3 247.064 3 189.696C3 132.327 25.3406 78.5441 65.8847 38L77.1929 49.584C39.6827 87.0942 19.2728 136.74 19.2728 189.696C19.2728 242.651 39.9585 292.297 77.1929 329.807C114.703 367.317 164.349 387.727 217.304 387.727C270.26 387.727 319.906 367.041 357.416 329.807L369 341.115C328.456 381.659 274.673 404 217.304 404Z" fill="#1D97DE"/>
<path d="M221.929 323.426C226.346 280.749 206.47 240.969 173.067 216.733C155.399 204.088 133.866 195.394 110.401 193.287C104.328 192.76 99.6347 187.491 100.463 181.696C101.291 175.373 106.812 171.421 112.61 172.212C138.283 174.583 161.748 183.276 181.348 196.448C223.862 224.636 249.811 273.372 244.29 325.797C243.462 334.227 241.805 342.13 239.321 350.033L271.896 358.727C281.558 356.092 291.22 352.667 300.054 348.716C302.263 336.861 303.643 324.48 303.643 311.834C303.643 213.308 227.45 131.642 128.069 117.68C116.198 116.099 104.052 115.836 95.2178 117.943C81.1387 121.368 68.9921 128.744 59.6061 138.755C48.5637 150.61 42.2143 166.153 42.2143 183.013C42.2143 213.045 62.6427 238.335 91.0769 247.028C96.322 248.609 104.604 249.399 108.745 249.926H109.021C139.939 254.932 163.681 281.012 163.681 311.834C163.681 324.216 159.816 335.807 153.19 345.818L175.827 359.517C186.594 362.151 197.912 363.995 209.507 364.786C215.856 352.141 220.273 338.178 221.929 323.426Z" fill="#1D97DE"/>
<path d="M249.476 91.2519H249V152.827C249 157.271 252.65 160.921 257.094 160.921H320.494C319.938 122.436 288.357 91.2519 249.476 91.2519ZM249.476 40.4682H249V66.6535C301.291 66.8916 343.823 108.947 344.378 160.921H371.516C371.039 94.4258 316.526 40.4682 249.476 40.4682ZM410 152.906V97.2824C391.591 52.2119 354.535 16.5841 308.433 3.55683e-05H257.094C252.65 3.55683e-05 249 3.65011 249 8.09368V15.9493C329.46 16.1873 394.924 81.0158 395.4 161H401.906C406.429 160.921 410 157.35 410 152.906ZM388.814 22.4559C396.273 29.9148 403.89 39.3573 410 47.689V8.01433C410.003 6.96099 409.798 5.91743 409.396 4.94368C408.995 3.96992 408.404 3.08518 407.66 2.34036C406.915 1.59554 406.03 1.00533 405.056 0.603686C404.083 0.202043 403.039 -0.00310717 401.986 3.55683e-05H361.121C370.643 6.58604 380.482 14.1242 388.814 22.4559Z" fill="#1D97DE"/>
</svg>
