<svg width="410" height="404" viewBox="0 0 410 404" fill="none" xmlns="http://www.w3.org/2000/svg">
<path d="M220.526 353.004C225.478 344.397 236.451 341.445 245.028 346.413C253.605 351.383 256.547 362.394 251.596 371.002C246.875 379.207 240.084 386.02 231.91 390.758C223.733 395.496 214.45 397.999 205.009 398C195.565 398 186.286 395.496 178.107 390.758C169.928 386.02 163.126 379.21 158.404 371.002C153.453 362.394 156.395 351.383 164.972 346.413C173.549 341.444 184.521 344.396 189.474 353.004C191.048 355.739 193.316 358.016 196.041 359.595C198.766 361.172 201.863 362.003 205.009 362.003C208.154 362.002 211.252 361.173 213.976 359.595C216.699 358.016 218.953 355.737 220.526 353.004Z" fill="#4088DA"/>
<path d="M368.504 126.876C368.504 89.6443 355.872 56.9809 336.25 28.5927C330.597 20.4159 332.507 9.09116 340.513 3.31836C348.52 -2.4535 359.61 -0.503391 365.263 7.67235C388.235 40.905 404 80.7387 404 126.876C404 136.886 396.054 145 386.252 145C376.45 145 368.504 136.886 368.504 126.876Z" fill="#4088DA"/>
<path d="M6 126.876C6 80.7387 21.7652 40.905 44.7369 7.67235C50.3899 -0.503391 61.4797 -2.4535 69.4868 3.31836C77.493 9.09116 79.4026 20.4159 73.7505 28.5927C54.128 56.9809 41.4958 89.6443 41.4958 126.876C41.4958 136.886 33.5498 145 23.7479 145C13.946 145 6 136.886 6 126.876Z" fill="#4088DA"/>
<path d="M204.986 0C238.774 2.30441e-05 271.189 13.3115 295.081 37.0166C318.974 60.7234 332.389 92.8856 332.389 126.412C332.389 165.142 338.503 189.236 346.501 206.036C352.516 218.667 359.927 227.944 368.364 237.022L377.126 246.157L377.517 246.58C382.265 251.757 385.398 258.189 386.529 265.098C387.658 272.003 386.748 279.086 383.898 285.484C381.045 291.883 376.371 297.326 370.461 301.145C365.287 304.486 359.35 306.473 353.22 306.912L350.59 307H59.3812C52.3264 306.995 45.4185 304.952 39.5101 301.127C33.6016 297.301 28.9373 291.855 26.0912 285.449C23.246 279.044 22.3388 271.953 23.4779 265.045C24.6176 258.14 27.7553 251.714 32.5072 246.545L32.8803 246.14C44.9736 233.752 55.4514 222.877 63.4691 206.036C71.4673 189.236 77.5824 165.143 77.5824 126.412C77.5824 92.8856 91.0148 60.7234 114.908 37.0166C138.799 13.3152 171.201 0.00117657 204.986 0ZM124.5 245.95C118.149 245.95 113.001 251.11 113 257.475C113 263.84 118.149 269 124.5 269H285.5C291.851 269 297 263.84 297 257.475C297 251.11 291.851 245.95 285.5 245.95H124.5ZM213.131 41.876C208.921 37.6566 201.184 38.3864 196.667 42.0781L127.87 111.026C123.379 115.527 123.378 122.822 127.87 127.323C132.361 131.824 139.64 131.824 144.131 127.323L193.5 77.8467V211.375C193.5 217.74 198.649 222.899 205 222.899C211.351 222.899 216.5 217.74 216.5 211.375V77.8467L265.87 127.323C270.361 131.824 277.64 131.824 282.131 127.323C286.622 122.823 286.622 115.527 282.131 111.026L213.131 41.876Z" fill="#4088DA"/>
</svg>
